# xmcd
# 
# Track frame offsets:
#     150
#     28778
#     58943
#     94313
#     170588
#     203258
#     238673
#     279016
# 
# Disc length: 4165
# 
# Revision: 2
# Processed by: cddbd v1.5.2PL0 Copyright (c) Steve Scherf et al.
# Submitted via: fre:ac v1.0.27
# 
DISCID=66104308
DTITLE=Charlie Haden, Liberation Music Orchestra - Not in Our Name (arr. Carla Bley)
DYEAR=2004
DGENRE=Jazz
TTITLE0=Not In Our Name
TTITLE1=This Is Not America
TTITLE2=Blue Anthem
TTITLE3=America The Beautiful (Medley)
TTITLE4=Amazing Grace
TTITLE5=Goin' Home (From The Largo Of The New World Symphony)
TTITLE6=Throughout
TTITLE7=Adagio (From Adagio For Strings)
EXTD=YEAR: 2004
EXTT0=
EXTT1=
EXTT2=
EXTT3=
EXTT4=
EXTT5=
EXTT6=
EXTT7=
PLAYORDER=
